<svg width="115" height="25" viewBox="0 0 115 25" fill="none" xmlns="http://www.w3.org/2000/svg">
<path d="M36.8454 3.35423C35.594 1.25374 33.3859 0 30.9392 0H18.196L22.5233 7.99261L18.9117 14.6636L10.9799 0H6.88188C4.43755 0 2.22947 1.25374 0.978062 3.35423C-0.273341 5.45472 -0.327141 7.99261 0.835378 10.1446L6.92164 21.3955C8.14264 23.6504 10.4022 24.9977 12.9681 24.9977C15.4663 24.9977 17.6697 23.7112 18.9094 21.5592C20.1514 23.7112 22.3525 24.9977 24.853 24.9977C27.4189 24.9977 29.6761 23.6504 30.8971 21.3955L36.9834 10.1446C38.1506 7.99495 38.0968 5.45705 36.8454 3.35423ZM16.1165 19.8283C15.4803 21.0025 14.3038 21.7042 12.9681 21.7042C11.6325 21.7042 10.456 21.0025 9.81975 19.8283L3.73349 8.57738C3.12767 7.45696 3.15574 6.13539 3.80834 5.04304C4.4586 3.94835 5.60942 3.29575 6.88188 3.29575H9.01511L17.0381 18.1255L16.1165 19.8283ZM34.0876 8.57738L28.0014 19.8283C27.3651 21.0025 26.1886 21.7042 24.853 21.7042C23.5174 21.7042 22.3408 21.0025 21.7046 19.8283L20.783 18.1255L26.2634 7.99027L23.7255 3.29575H30.9392C32.2117 3.29575 33.3625 3.94835 34.0128 5.04304C34.6654 6.13539 34.6934 7.45696 34.0876 8.57738Z" fill="#5F5FFF"/>
<path d="M36.9808 10.1446L30.8946 21.3932C30.2911 22.5253 29.4116 23.4258 28.3801 24.041C27.3485 24.6562 26.1392 24.9977 24.8528 24.9977C22.3476 24.9977 20.1512 23.7136 18.9092 21.5593L18.9536 21.4938C18.9653 21.461 18.9864 21.4283 19.0074 21.3955L20.3594 18.9138L20.7875 18.1349L21.6997 19.8377C22.3359 21.0026 23.5125 21.7043 24.8528 21.7043C26.193 21.7043 27.3673 21.0002 28.0058 19.826L34.0921 8.57742C34.6956 7.457 34.6628 6.13777 34.0149 5.0501C33.367 3.95074 32.2138 3.29346 30.939 3.29346L36.8499 3.35895C38.1013 5.45476 38.1457 7.99265 36.9808 10.1446Z" fill="url(#paint0_linear_905_2234)"/>
<path d="M17.0382 18.1253L9.01514 3.29563L11.9881 1.86646L18.9118 14.6635" fill="url(#paint1_linear_905_2234)"/>
<path d="M26.2637 7.99021L23.7258 3.29569L19.9786 3.29102L22.5188 7.99021L17.6746 16.9372V16.9395L17.4571 17.3418L16.1168 19.8259C15.4805 21.0025 14.304 21.7065 12.9684 21.7065C11.6328 21.7065 10.4562 21.0048 9.81999 19.8259L6.92188 21.3931C8.14287 23.6526 10.4048 24.9999 12.9684 24.9999C15.532 24.9999 17.7915 23.6503 19.0149 21.3908L20.7832 18.1254L20.7785 18.1231L26.2637 7.99021Z" fill="url(#paint2_linear_905_2234)"/>
<path d="M60.1986 6.27808L56.5613 18.7219H53.1696L50.9007 10.0299L48.6318 18.7219H45.2168L41.5562 6.27808H44.7466L46.9477 15.756L49.3289 6.27808H52.6527L54.9894 15.7326L57.1905 6.27808H60.1986Z" fill="#5F5FFF"/>
<path d="M72.4835 13.4429H63.3869C63.4617 14.3411 63.7752 15.0451 64.3295 15.5527C64.8839 16.0626 65.5646 16.3176 66.3739 16.3176C67.5411 16.3176 68.3715 15.817 68.8673 14.8112H72.259C71.9011 16.0088 71.2111 16.9936 70.1936 17.7655C69.1761 18.5374 67.9247 18.9233 66.4441 18.9233C65.2464 18.9233 64.1728 18.6567 63.2208 18.1257C62.2688 17.5947 61.5297 16.8416 60.9964 15.8685C60.463 14.8954 60.1987 13.7727 60.1987 12.4979C60.1987 11.2114 60.4607 10.0816 60.9847 9.10858C61.5086 8.13553 62.2431 7.38703 63.1857 6.86308C64.1284 6.33912 65.2137 6.07715 66.4417 6.07715C67.6253 6.07715 68.6825 6.33211 69.6205 6.84202C70.5561 7.35194 71.2836 8.07472 71.7982 9.008C72.3151 9.94363 72.5748 11.0173 72.5748 12.2312C72.5748 12.6803 72.542 13.0827 72.4835 13.4429ZM69.3164 11.333C69.3024 10.5237 69.01 9.8758 68.4416 9.38927C67.8732 8.90275 67.1762 8.65948 66.3528 8.65948C65.5739 8.65948 64.919 8.89573 64.388 9.36822C63.8547 9.84071 63.5296 10.4957 63.4103 11.333H69.3164Z" fill="#5F5FFF"/>
<path d="M78.7825 6.63849C79.4935 6.26424 80.3052 6.07711 81.2198 6.07711C82.284 6.07711 83.2454 6.33909 84.1062 6.86304C84.967 7.38699 85.6476 8.13082 86.1505 9.09685C86.6534 10.0629 86.9037 11.181 86.9037 12.4558C86.9037 13.7282 86.6534 14.8556 86.1505 15.8357C85.65 16.8158 84.9693 17.576 84.1062 18.114C83.2454 18.652 82.284 18.9233 81.2198 18.9233C80.2912 18.9233 79.4795 18.7408 78.7825 18.3736C78.0854 18.0087 77.5287 17.5315 77.11 16.9491V18.7245H73.9663V2.10303H77.11V8.10041C77.5147 7.49927 78.0714 7.01274 78.7825 6.63849ZM83.229 10.512C82.9226 9.96465 82.518 9.54829 82.0151 9.26527C81.5145 8.98224 80.9718 8.83722 80.3871 8.83722C79.8187 8.83722 79.283 8.98458 78.7825 9.27696C78.2796 9.56701 77.8772 9.99038 77.5685 10.5447C77.2621 11.0991 77.11 11.7494 77.11 12.4979C77.11 13.2464 77.2621 13.899 77.5685 14.4533C77.8749 15.0077 78.2796 15.4311 78.7825 15.7211C79.283 16.0135 79.8187 16.1608 80.3871 16.1608C80.9718 16.1608 81.5145 16.0111 82.0151 15.7117C82.518 15.4123 82.9203 14.9866 83.229 14.4323C83.5355 13.8779 83.6898 13.2183 83.6898 12.4558C83.6898 11.7073 83.5355 11.0593 83.229 10.512Z" fill="#5F5FFF"/>
<path d="M93.1115 6.63839C93.8225 6.26413 94.6342 6.07701 95.5488 6.07701C96.613 6.07701 97.5744 6.33898 98.4352 6.86294C99.296 7.38689 99.9766 8.13071 100.48 9.09675C100.982 10.0628 101.233 11.1809 101.233 12.4557C101.233 13.7281 100.982 14.8555 100.48 15.8356C99.979 16.8157 99.2983 17.5759 98.4352 18.1139C97.5744 18.6519 96.613 18.9232 95.5488 18.9232C94.6202 18.9232 93.8085 18.7407 93.1115 18.3735C92.4144 18.0086 91.8577 17.5314 91.4367 16.949V18.7244H88.293V2.10059H91.4367V8.09797C91.8437 7.49916 92.4004 7.01264 93.1115 6.63839ZM97.558 10.5119C97.2516 9.96454 96.8469 9.54819 96.344 9.26516C95.8435 8.98213 95.3008 8.83711 94.7161 8.83711C94.1477 8.83711 93.612 8.98447 93.1115 9.27686C92.6086 9.5669 92.2062 9.99027 91.8975 10.5446C91.5911 11.099 91.4367 11.7493 91.4367 12.4978C91.4367 13.2463 91.5911 13.8989 91.8975 14.4532C92.2039 15.0076 92.6086 15.431 93.1115 15.721C93.612 16.0134 94.1477 16.1607 94.7161 16.1607C95.3008 16.1607 95.8435 16.011 96.344 15.7116C96.8469 15.4122 97.2493 14.9865 97.558 14.4322C97.8645 13.8778 98.0188 13.2182 98.0188 12.4557C98.0188 11.7072 97.8668 11.0592 97.558 10.5119Z" fill="#5F5FFF"/>
<path d="M114.526 6.27808L106.823 24.6047H103.476L106.171 18.4062L101.186 6.27808H104.713L107.925 14.9701L111.181 6.27808H114.526Z" fill="#5F5FFF"/>
<defs>
<linearGradient id="paint0_linear_905_2234" x1="20.2389" y1="23.2323" x2="38.4822" y2="4.98908" gradientUnits="userSpaceOnUse">
<stop offset="0.1" stop-color="#3D3DF5"/>
<stop offset="0.7606" stop-color="#3D3DF5" stop-opacity="0"/>
</linearGradient>
<linearGradient id="paint1_linear_905_2234" x1="18.6645" y1="17.1863" x2="10.2374" y2="2.59019" gradientUnits="userSpaceOnUse">
<stop offset="0.2" stop-color="#3D3DF5"/>
<stop offset="0.9" stop-color="#3D3DF5" stop-opacity="0"/>
</linearGradient>
<linearGradient id="paint2_linear_905_2234" x1="10.9388" y1="24.9089" x2="23.4942" y2="3.16228" gradientUnits="userSpaceOnUse">
<stop offset="0.05" stop-color="#7070FF" stop-opacity="0"/>
<stop offset="0.5" stop-color="#7070FF"/>
<stop offset="0.95" stop-color="#7070FF" stop-opacity="0"/>
</linearGradient>
</defs>
</svg>
